# xmcd
#
# Track frame offsets: 
#        180
#        19388
#        31647
#        48814
#        67763
#        85537
#        101293
#        123392
#        135487
#        152459
#        171345
#        184390
#        203814
#        222462
#        242786
#        253371
#        270334
#        288342
#        302132
#
# Disc length: 4321 seconds
#
# Revision: 2
# Processed by: cddbd v1.5.2PL0 Copyright (c) Steve Scherf et al.
# Submitted via: ExactAudioCopy v0.99pb5
#
DISCID=0210df13
DTITLE=Dave Shepherd - Good Enough To Keep
DYEAR=1995
DGENRE=Jazz
TTITLE0=Poor Butterfly
TTITLE1=Breakfast Feud
TTITLE2=More Than You Know
TTITLE3=Limehouse Blues
TTITLE4=Tiger Rag
TTITLE5=Sheik Of Araby
TTITLE6=Body And Soul
TTITLE7=Wholly Cats
TTITLE8=Exactly Like You
TTITLE9=Good Enough To Keep
TTITLE10=At The Jazz Band Ball
TTITLE11=Do You Know What It Means To Miss New Orleans?
TTITLE12=That's A-plenty
TTITLE13=Lonesome Road
TTITLE14=Shepherd's Market
TTITLE15=Tin Roof Blues
TTITLE16=Blues For a Black Girl
TTITLE17=Original Dixieland One Step
TTITLE18=Basin Street Blues
EXTD=YEAR: 1995
EXTT0=
EXTT1=
EXTT2=
EXTT3=
EXTT4=
EXTT5=
EXTT6=
EXTT7=
EXTT8=
EXTT9=
EXTT10=
EXTT11=
EXTT12=
EXTT13=
EXTT14=
EXTT15=
EXTT16=
EXTT17=
EXTT18=
PLAYORDER=
